<?xml version="1.0" encoding="UTF-8"?>
<svg xmlns="http://www.w3.org/2000/svg" style="display: none;">

<!-- logo -->

<symbol id="swivel" viewBox="0 0 72 128">
    <path fill-rule="evenodd" clip-rule="evenodd" d="M19.8049 51.443C10.4676 42.1056 10.4676 26.9668 19.8049 17.6295C29.1422 8.29221 44.281 8.29221 53.6183 17.6295C62.9556 26.9668 62.9556 42.1056 53.6183 51.443C51.5433 53.5179 51.5433 56.8821 53.6183 58.957C55.6933 61.032 59.0574 61.032 61.1324 58.957C74.6196 45.4698 74.6196 23.6027 61.1324 10.1154C47.6452 -3.37181 25.778 -3.37181 12.2908 10.1154C-1.19646 23.6027 -1.19646 45.4698 12.2908 58.9571L39.9282 86.5944C42.0031 88.6694 45.3673 88.6694 47.4423 86.5944C49.5172 84.5195 49.5172 81.1553 47.4423 79.0803L19.8049 51.443ZM51.443 76.5571C60.7803 85.8944 60.7803 101.033 51.443 110.371C42.1056 119.708 26.9668 119.708 17.6295 110.371C8.29221 101.033 8.29221 85.8944 17.6295 76.5571C19.7045 74.4821 19.7045 71.118 17.6295 69.043C15.5546 66.968 12.1904 66.968 10.1154 69.043C-3.37181 82.5303 -3.37181 104.397 10.1154 117.885C23.6027 131.372 45.4698 131.372 58.957 117.885C72.4443 104.397 72.4443 82.5302 58.9571 69.043L31.3197 41.4056C29.2447 39.3307 25.8805 39.3307 23.8056 41.4056C21.7306 43.4806 21.7306 46.8448 23.8056 48.9197L51.443 76.5571Z"/>
</symbol>
<symbol id="etherscan" viewBox="0 0 293.775 293.667">
  <g transform="translate(-219.378 -213.333)">
    <path d="M280.433,353.152A12.45,12.45,0,0,1,292.941,340.7l20.737.068a12.467,12.467,0,0,1,12.467,12.467v78.414c2.336-.692,5.332-1.43,8.614-2.2a10.389,10.389,0,0,0,8.009-10.11V322.073a12.469,12.469,0,0,1,12.467-12.47h20.779a12.47,12.47,0,0,1,12.467,12.47v90.276s5.2-2.106,10.269-4.245a10.408,10.408,0,0,0,6.353-9.577V290.9a12.466,12.466,0,0,1,12.465-12.467h20.779A12.468,12.468,0,0,1,450.815,290.9v88.625c18.014-13.055,36.271-28.758,50.759-47.639a20.926,20.926,0,0,0,3.185-19.537,146.6,146.6,0,0,0-136.644-99.006c-81.439-1.094-148.744,65.385-148.736,146.834a146.371,146.371,0,0,0,19.5,73.45,18.56,18.56,0,0,0,17.707,9.173c3.931-.346,8.825-.835,14.643-1.518a10.383,10.383,0,0,0,9.209-10.306V353.152" transform="translate(0 0)"/>
    <path d="M244.417,398.641A146.808,146.808,0,0,0,477.589,279.9c0-3.381-.157-6.724-.383-10.049-53.642,80-152.686,117.405-232.79,128.793" transform="translate(35.564 80.269)"/>
  </g>
</symbol>

<!-- navigation icons -->

<symbol id="wallet" viewBox="0 0 24 24">
    <path d="M10 16V8c0-1.1.89-2 2-2h9V5c0-1.1-.9-2-2-2H5c-1.11 0-2 .9-2 2v14c0 1.1.89 2 2 2h14c1.1 0 2-.9 2-2v-1h-9c-1.11 0-2-.9-2-2zm3-8c-.55 0-1 .45-1 1v6c0 .55.45 1 1 1h9V8h-9zm3 5.5c-.83 0-1.5-.67-1.5-1.5s.67-1.5 1.5-1.5 1.5.67 1.5 1.5-.67 1.5-1.5 1.5z"/>
</symbol>

<symbol id="more" viewBox="0 0 24 24">
    <path d="M6 10c-1.1 0-2 .9-2 2s.9 2 2 2 2-.9 2-2-.9-2-2-2zm12 0c-1.1 0-2 .9-2 2s.9 2 2 2 2-.9 2-2-.9-2-2-2zm-6 0c-1.1 0-2 .9-2 2s.9 2 2 2 2-.9 2-2-.9-2-2-2z"/>
</symbol>

<symbol id="discord" viewBox="0 0 71 55">
    <path d="M60.1045 4.8978C55.5792 2.8214 50.7265 1.2916 45.6527 0.41542C45.5603 0.39851 45.468 0.440769 45.4204 0.525289C44.7963 1.6353 44.105 3.0834 43.6209 4.2216C38.1637 3.4046 32.7345 3.4046 27.3892 4.2216C26.905 3.0581 26.1886 1.6353 25.5617 0.525289C25.5141 0.443589 25.4218 0.40133 25.3294 0.41542C20.2584 1.2888 15.4057 2.8186 10.8776 4.8978C10.8384 4.9147 10.8048 4.9429 10.7825 4.9795C1.57795 18.7309 -0.943561 32.1443 0.293408 45.3914C0.299005 45.4562 0.335386 45.5182 0.385761 45.5576C6.45866 50.0174 12.3413 52.7249 18.1147 54.5195C18.2071 54.5477 18.305 54.5139 18.3638 54.4378C19.7295 52.5728 20.9469 50.6063 21.9907 48.5383C22.0523 48.4172 21.9935 48.2735 21.8676 48.2256C19.9366 47.4931 18.0979 46.6 16.3292 45.5858C16.1893 45.5041 16.1781 45.304 16.3068 45.2082C16.679 44.9293 17.0513 44.6391 17.4067 44.3461C17.471 44.2926 17.5606 44.2813 17.6362 44.3151C29.2558 49.6202 41.8354 49.6202 53.3179 44.3151C53.3935 44.2785 53.4831 44.2898 53.5502 44.3433C53.9057 44.6363 54.2779 44.9293 54.6529 45.2082C54.7816 45.304 54.7732 45.5041 54.6333 45.5858C52.8646 46.6197 51.0259 47.4931 49.0921 48.2228C48.9662 48.2707 48.9102 48.4172 48.9718 48.5383C50.038 50.6034 51.2554 52.5699 52.5959 54.435C52.6519 54.5139 52.7526 54.5477 52.845 54.5195C58.6464 52.7249 64.529 50.0174 70.6019 45.5576C70.6551 45.5182 70.6887 45.459 70.6943 45.3942C72.1747 30.0791 68.2147 16.7757 60.1968 4.9823C60.1772 4.9429 60.1437 4.9147 60.1045 4.8978ZM23.7259 37.3253C20.2276 37.3253 17.3451 34.1136 17.3451 30.1693C17.3451 26.225 20.1717 23.0133 23.7259 23.0133C27.308 23.0133 30.1626 26.2532 30.1066 30.1693C30.1066 34.1136 27.28 37.3253 23.7259 37.3253ZM47.3178 37.3253C43.8196 37.3253 40.9371 34.1136 40.9371 30.1693C40.9371 26.225 43.7636 23.0133 47.3178 23.0133C50.9 23.0133 53.7545 26.2532 53.6986 30.1693C53.6986 34.1136 50.9 37.3253 47.3178 37.3253Z"/>
</symbol>

<symbol id="docs" viewBox="0 0 24 24">
    <path d="M17.5,4.5c-1.95,0-4.05,0.4-5.5,1.5c-1.45-1.1-3.55-1.5-5.5-1.5c-1.45,0-2.99,0.22-4.28,0.79C1.49,5.62,1,6.33,1,7.14 l0,11.28c0,1.3,1.22,2.26,2.48,1.94C4.46,20.11,5.5,20,6.5,20c1.56,0,3.22,0.26,4.56,0.92c0.6,0.3,1.28,0.3,1.87,0 c1.34-0.67,3-0.92,4.56-0.92c1,0,2.04,0.11,3.02,0.36c1.26,0.33,2.48-0.63,2.48-1.94l0-11.28c0-0.81-0.49-1.52-1.22-1.85 C20.49,4.72,18.95,4.5,17.5,4.5z M21,17.23c0,0.63-0.58,1.09-1.2,0.98c-0.75-0.14-1.53-0.2-2.3-0.2c-1.7,0-4.15,0.65-5.5,1.5V8 c1.35-0.85,3.8-1.5,5.5-1.5c0.92,0,1.83,0.09,2.7,0.28c0.46,0.1,0.8,0.51,0.8,0.98V17.23z"/>
    <path d="M13.98,11.01c-0.32,0-0.61-0.2-0.71-0.52c-0.13-0.39,0.09-0.82,0.48-0.94c1.54-0.5,3.53-0.66,5.36-0.45 c0.41,0.05,0.71,0.42,0.66,0.83c-0.05,0.41-0.42,0.71-0.83,0.66c-1.62-0.19-3.39-0.04-4.73,0.39 C14.13,10.99,14.05,11.01,13.98,11.01z"/>
    <path d="M13.98,13.67c-0.32,0-0.61-0.2-0.71-0.52c-0.13-0.39,0.09-0.82,0.48-0.94c1.53-0.5,3.53-0.66,5.36-0.45 c0.41,0.05,0.71,0.42,0.66,0.83c-0.05,0.41-0.42,0.71-0.83,0.66c-1.62-0.19-3.39-0.04-4.73,0.39 C14.13,13.66,14.05,13.67,13.98,13.67z"/>
    <path d="M13.98,16.33c-0.32,0-0.61-0.2-0.71-0.52c-0.13-0.39,0.09-0.82,0.48-0.94c1.53-0.5,3.53-0.66,5.36-0.45 c0.41,0.05,0.71,0.42,0.66,0.83c-0.05,0.41-0.42,0.7-0.83,0.66c-1.62-0.19-3.39-0.04-4.73,0.39 C14.13,16.32,14.05,16.33,13.98,16.33z"/>
</symbol>

<symbol id="professional" viewBox="0 0 24 24">
    <path d="M21 6V10.5C21 11.05 20.55 11.5 20 11.5H10.33C9.78 11.5 9.33 11.05 9.33 10.5V6C9.33 5.45 9.78 5 10.33 5H20C20.55 5 21 5.45 21 6ZM14.67 18V13.5C14.67 12.95 14.22 12.5 13.67 12.5H10.34C9.79 12.5 9.34 12.95 9.34 13.5V18C9.34 18.55 9.79 19 10.34 19H13.67C14.22 19 14.67 18.55 14.67 18ZM15.67 13.5V18C15.67 18.55 16.12 19 16.67 19H20C20.55 19 21 18.55 21 18V13.5C21 12.95 20.55 12.5 20 12.5H16.67C16.11 12.5 15.67 12.95 15.67 13.5ZM8.33 18V6C8.33 5.45 7.88 5 7.33 5H4C3.45 5 3 5.45 3 6V18C3 18.55 3.45 19 4 19H7.33C7.89 19 8.33 18.55 8.33 18Z"/>
</symbol>

<symbol id="positions" viewBox="0 0 24 24">
    <path d="M4 14H6C6.55 14 7 13.55 7 13V11C7 10.45 6.55 10 6 10H4C3.45 10 3 10.45 3 11V13C3 13.55 3.45 14 4 14ZM4 19H6C6.55 19 7 18.55 7 18V16C7 15.45 6.55 15 6 15H4C3.45 15 3 15.45 3 16V18C3 18.55 3.45 19 4 19ZM4 9H6C6.55 9 7 8.55 7 8V6C7 5.45 6.55 5 6 5H4C3.45 5 3 5.45 3 6V8C3 8.55 3.45 9 4 9ZM9 14H20C20.55 14 21 13.55 21 13V11C21 10.45 20.55 10 20 10H9C8.45 10 8 10.45 8 11V13C8 13.55 8.45 14 9 14ZM9 19H20C20.55 19 21 18.55 21 18V16C21 15.45 20.55 15 20 15H9C8.45 15 8 15.45 8 16V18C8 18.55 8.45 19 9 19ZM8 6V8C8 8.55 8.45 9 9 9H20C20.55 9 21 8.55 21 8V6C21 5.45 20.55 5 20 5H9C8.45 5 8 5.45 8 6Z"/>
</symbol>

<symbol id="policy" viewBox="0 0 24 24">
    <path d="M21,6.3c0-0.79-0.47-1.51-1.19-1.83l-7-3.11c-0.52-0.23-1.11-0.23-1.62,0l-7,3.11C3.47,4.79,3,5.51,3,6.3V11 c0,5.55,3.84,10.74,9,12c2.3-0.56,4.33-1.9,5.88-3.71l-3.12-3.12c-1.94,1.29-4.58,1.07-6.29-0.64c-1.95-1.95-1.95-5.12,0-7.07 c1.95-1.95,5.12-1.95,7.07,0c1.71,1.71,1.92,4.35,0.64,6.29l2.9,2.9C20.29,15.69,21,13.38,21,11V6.3z"/>
    <circle cx="12" cy="12" r="3"/>
</symbol>

<symbol id="light" viewBox="0 0 24 24">
    <path d="M12 7C9.24 7 7 9.24 7 12C7 14.76 9.24 17 12 17C14.76 17 17 14.76 17 12C17 9.24 14.76 7 12 7ZM2 13H4C4.55 13 5 12.55 5 12C5 11.45 4.55 11 4 11H2C1.45 11 1 11.45 1 12C1 12.55 1.45 13 2 13ZM20 13H22C22.55 13 23 12.55 23 12C23 11.45 22.55 11 22 11H20C19.45 11 19 11.45 19 12C19 12.55 19.45 13 20 13ZM11 2V4C11 4.55 11.45 5 12 5C12.55 5 13 4.55 13 4V2C13 1.45 12.55 1 12 1C11.45 1 11 1.45 11 2ZM11 20V22C11 22.55 11.45 23 12 23C12.55 23 13 22.55 13 22V20C13 19.45 12.55 19 12 19C11.45 19 11 19.45 11 20ZM5.99 4.58C5.6 4.19 4.96 4.19 4.58 4.58C4.19 4.97 4.19 5.61 4.58 5.99L5.64 7.05C6.03 7.44 6.67 7.44 7.05 7.05C7.43 6.66 7.44 6.02 7.05 5.64L5.99 4.58ZM18.36 16.95C17.97 16.56 17.33 16.56 16.95 16.95C16.56 17.34 16.56 17.98 16.95 18.36L18.01 19.42C18.4 19.81 19.04 19.81 19.42 19.42C19.81 19.03 19.81 18.39 19.42 18.01L18.36 16.95ZM19.42 5.99C19.81 5.6 19.81 4.96 19.42 4.58C19.03 4.19 18.39 4.19 18.01 4.58L16.95 5.64C16.56 6.03 16.56 6.67 16.95 7.05C17.34 7.43 17.98 7.44 18.36 7.05L19.42 5.99ZM7.05 18.36C7.44 17.97 7.44 17.33 7.05 16.95C6.66 16.56 6.02 16.56 5.64 16.95L4.58 18.01C4.19 18.4 4.19 19.04 4.58 19.42C4.97 19.8 5.61 19.81 5.99 19.42L7.05 18.36Z"/>
</symbol>

<symbol id="dark" viewBox="0 0 24 24">
    <path d="M11.01 3.05001C6.51 3.54001 3 7.36001 3 12C3 14.387 3.94821 16.6761 5.63604 18.364C7.32387 20.0518 9.61305 21 12 21C16.63 21 20.45 17.5 20.95 13C21.04 12.21 20.17 11.58 19.41 12.05C18.5937 12.5711 17.6523 12.8631 16.6844 12.8957C15.7165 12.9282 14.7576 12.6999 13.9082 12.2348C13.0587 11.7697 12.3499 11.0848 11.8559 10.2519C11.3618 9.4189 11.1008 8.46846 11.1 7.50001C11.1 6.44001 11.41 5.44001 11.94 4.61001C12.39 3.94001 11.9 2.98001 11.01 3.05001V3.05001Z"/>
</symbol>

<symbol id="tour" viewBox="0 0 24 24">
    <path d="M20.45,5.37C20.71,4.71,20.23,4,19.52,4H13h-1H7V3c0-0.55-0.45-1-1-1h0C5.45,2,5,2.45,5,3v1v10v8h2v-8h4h1h7.52 c0.71,0,1.19-0.71,0.93-1.37L19,9L20.45,5.37z M15,9c0,1.1-0.9,2-2,2s-2-0.9-2-2s0.9-2,2-2S15,7.9,15,9z"/>
</symbol>

<!-- app icons -->

<symbol id="angle-right-b" viewBox="0 0 24 24">
    <path d="M15.54,11.29,9.88,5.64a1,1,0,0,0-1.42,0,1,1,0,0,0,0,1.41l4.95,5L8.46,17a1,1,0,0,0,0,1.41,1,1,0,0,0,.71.3,1,1,0,0,0,.71-.3l5.66-5.65A1,1,0,0,0,15.54,11.29Z"/>
</symbol>
<symbol id="envelope-alt" viewBox="0 0 24 24">
    <path d="M19,4H5A3,3,0,0,0,2,7V17a3,3,0,0,0,3,3H19a3,3,0,0,0,3-3V7A3,3,0,0,0,19,4ZM5,6H19a1,1,0,0,1,1,1l-8,4.88L4,7A1,1,0,0,1,5,6ZM20,17a1,1,0,0,1-1,1H5a1,1,0,0,1-1-1V9.28l7.48,4.57a1,1,0,0,0,1,0L20,9.28Z"/>
</symbol>
<symbol id="lock" viewBox="0 0 24 24">
    <path d="M17,9V7A5,5,0,0,0,7,7V9a3,3,0,0,0-3,3v7a3,3,0,0,0,3,3H17a3,3,0,0,0,3-3V12A3,3,0,0,0,17,9ZM9,7a3,3,0,0,1,6,0V9H9Zm9,12a1,1,0,0,1-1,1H7a1,1,0,0,1-1-1V12a1,1,0,0,1,1-1H17a1,1,0,0,1,1,1Z"/>
</symbol>
<symbol id="unlock" viewBox="0 0 24 24">
    <path d="M17,9H9V7a3,3,0,0,1,5.12-2.13,3.08,3.08,0,0,1,.78,1.38,1,1,0,1,0,1.94-.5,5.09,5.09,0,0,0-1.31-2.29A5,5,0,0,0,7,7V9a3,3,0,0,0-3,3v7a3,3,0,0,0,3,3H17a3,3,0,0,0,3-3V12A3,3,0,0,0,17,9Zm1,10a1,1,0,0,1-1,1H7a1,1,0,0,1-1-1V12a1,1,0,0,1,1-1H17a1,1,0,0,1,1,1Z"/>
</symbol>
<symbol id="brush-alt" viewBox="0 0 24 24">
    <path d="M12,18a1,1,0,1,0,1,1A1,1,0,0,0,12,18ZM18,1H6A1,1,0,0,0,5,2v9a3,3,0,0,0,3,3H9v2.37a4,4,0,1,0,6,0V14h1a3,3,0,0,0,3-3V2A1,1,0,0,0,18,1ZM12,21a2,2,0,0,1-1.33-3.48,1,1,0,0,0,.33-.74V14h2v2.78a1,1,0,0,0,.33.74A2,2,0,0,1,12,21Zm5-10a1,1,0,0,1-1,1H8a1,1,0,0,1-1-1V10H17Zm0-3H7V3H17Z"/>
</symbol>
<symbol id="pen" viewBox="0 0 24 24">
    <path d="M22,7.24a1,1,0,0,0-.29-.71L17.47,2.29A1,1,0,0,0,16.76,2a1,1,0,0,0-.71.29L13.22,5.12h0L2.29,16.05a1,1,0,0,0-.29.71V21a1,1,0,0,0,1,1H7.24A1,1,0,0,0,8,21.71L18.87,10.78h0L21.71,8a1.19,1.19,0,0,0,.22-.33,1,1,0,0,0,0-.24.7.7,0,0,0,0-.14ZM6.83,20H4V17.17l9.93-9.93,2.83,2.83ZM18.17,8.66,15.34,5.83l1.42-1.41,2.82,2.82Z"/>
</symbol>
<symbol id="check" viewBox="0 0 24 24">
    <path d="M18.71,7.21a1,1,0,0,0-1.42,0L9.84,14.67,6.71,11.53A1,1,0,1,0,5.29,13l3.84,3.84a1,1,0,0,0,1.42,0l8.16-8.16A1,1,0,0,0,18.71,7.21Z"/>
</symbol>
<symbol id="times" viewBox="0 0 24 24">
    <path d="M13.41,12l4.3-4.29a1,1,0,1,0-1.42-1.42L12,10.59,7.71,6.29A1,1,0,0,0,6.29,7.71L10.59,12l-4.3,4.29a1,1,0,0,0,0,1.42,1,1,0,0,0,1.42,0L12,13.41l4.29,4.3a1,1,0,0,0,1.42,0,1,1,0,0,0,0-1.42Z"/>
</symbol>
<symbol id="rejected" viewBox="0 0 24 24">
    <path d="M12,2C6.5,2,2,6.5,2,12s4.5,10,10,10s10-4.5,10-10S17.5,2,12,2z M4,12c0-4.4,3.6-8,8-8c1.8,0,3.5,0.6,4.9,1.7L5.7,16.9 C4.6,15.5,4,13.8,4,12z M12,20c-1.8,0-3.5-0.6-4.9-1.7L18.3,7.1C19.4,8.5,20,10.2,20,12C20,16.4,16.4,20,12,20z"/>
</symbol>
<symbol id="trash" viewBox="0 0 24 24">
    <path d="M10,18a1,1,0,0,0,1-1V11a1,1,0,0,0-2,0v6A1,1,0,0,0,10,18ZM20,6H16V5a3,3,0,0,0-3-3H11A3,3,0,0,0,8,5V6H4A1,1,0,0,0,4,8H5V19a3,3,0,0,0,3,3h8a3,3,0,0,0,3-3V8h1a1,1,0,0,0,0-2ZM10,5a1,1,0,0,1,1-1h2a1,1,0,0,1,1,1V6H10Zm7,14a1,1,0,0,1-1,1H8a1,1,0,0,1-1-1V8H17Zm-3-1a1,1,0,0,0,1-1V11a1,1,0,0,0-2,0v6A1,1,0,0,0,14,18Z"/>
</symbol>
<symbol id="user" viewBox="0 0 24 24">
    <path d="M15.71,12.71a6,6,0,1,0-7.42,0,10,10,0,0,0-6.22,8.18,1,1,0,0,0,2,.22,8,8,0,0,1,15.9,0,1,1,0,0,0,1,.89h.11a1,1,0,0,0,.88-1.1A10,10,0,0,0,15.71,12.71ZM12,12a4,4,0,1,1,4-4A4,4,0,0,1,12,12Z"/>
</symbol>
<symbol id="user-circle" viewBox="0 0 24 24">
    <path d="M12,2A10,10,0,0,0,4.65,18.76h0a10,10,0,0,0,14.7,0h0A10,10,0,0,0,12,2Zm0,18a8,8,0,0,1-5.55-2.25,6,6,0,0,1,11.1,0A8,8,0,0,1,12,20ZM10,10a2,2,0,1,1,2,2A2,2,0,0,1,10,10Zm8.91,6A8,8,0,0,0,15,12.62a4,4,0,1,0-6,0A8,8,0,0,0,5.09,16,7.92,7.92,0,0,1,4,12a8,8,0,0,1,16,0A7.92,7.92,0,0,1,18.91,16Z"/>
</symbol>
<symbol id="plus" viewBox="0 0 24 24">
    <path d="M19,11H13V5a1,1,0,0,0-2,0v6H5a1,1,0,0,0,0,2h6v6a1,1,0,0,0,2,0V13h6a1,1,0,0,0,0-2Z"/>
</symbol>
<symbol id="minus" viewBox="0 0 24 24">
    <path d="M19,11H5a1,1,0,0,0,0,2H19a1,1,0,0,0,0-2Z"/>
</symbol>
<symbol id="question" viewBox="0 0 24 24">
    <path d="M11.29,15.29a1.58,1.58,0,0,0-.12.15.76.76,0,0,0-.09.18.64.64,0,0,0-.06.18,1.36,1.36,0,0,0,0,.2.84.84,0,0,0,.08.38.9.9,0,0,0,.54.54.94.94,0,0,0,.76,0,.9.9,0,0,0,.54-.54A1,1,0,0,0,13,16a1,1,0,0,0-.29-.71A1,1,0,0,0,11.29,15.29ZM12,2A10,10,0,1,0,22,12,10,10,0,0,0,12,2Zm0,18a8,8,0,1,1,8-8A8,8,0,0,1,12,20ZM12,7A3,3,0,0,0,9.4,8.5a1,1,0,1,0,1.73,1A1,1,0,0,1,12,9a1,1,0,0,1,0,2,1,1,0,0,0-1,1v1a1,1,0,0,0,2,0v-.18A3,3,0,0,0,12,7Z"/>
</symbol>
<symbol id="info" viewBox="0 0 24 24">
    <path d="M12,2A10,10,0,1,0,22,12,10.01114,10.01114,0,0,0,12,2Zm0,18a8,8,0,1,1,8-8A8.00917,8.00917,0,0,1,12,20Zm0-8.5a1,1,0,0,0-1,1v3a1,1,0,0,0,2,0v-3A1,1,0,0,0,12,11.5Zm0-4a1.25,1.25,0,1,0,1.25,1.25A1.25,1.25,0,0,0,12,7.5Z"/>
</symbol>
<symbol id="exclamation" viewBox="0 0 24 24">
    <path d="M12,16a1,1,0,1,0,1,1A1,1,0,0,0,12,16Zm10.67,1.47-8.05-14a3,3,0,0,0-5.24,0l-8,14A3,3,0,0,0,3.94,22H20.06a3,3,0,0,0,2.61-4.53Zm-1.73,2a1,1,0,0,1-.88.51H3.94a1,1,0,0,1-.88-.51,1,1,0,0,1,0-1l8-14a1,1,0,0,1,1.78,0l8.05,14A1,1,0,0,1,20.94,19.49ZM12,8a1,1,0,0,0-1,1v4a1,1,0,0,0,2,0V9A1,1,0,0,0,12,8Z"/>
</symbol>
<symbol id="lock-clock" viewBox="0 0 24 24">
    <path d="M18,11c0.7,0,1.37,0.1,2,0.29V10c0-1.1-0.9-2-2-2h-1V6c0-2.76-2.24-5-5-5S7,3.24,7,6v2H6c-1.1,0-2,0.9-2,2v10 c0,1.1,0.9,2,2,2h6.26C11.47,20.87,11,19.49,11,18C11,14.13,14.13,11,18,11z M9,6c0-1.66,1.34-3,3-3s3,1.34,3,3v2H9V6z"/>
    <path d="M18,13c-2.76,0-5,2.24-5,5s2.24,5,5,5s5-2.24,5-5S20.76,13,18,13z M20,20c-0.2,0.2-0.51,0.2-0.71,0l-1.65-1.65 c-0.09-0.09-0.15-0.22-0.15-0.35v-2.5c0-0.28,0.22-0.5,0.5-0.5h0c0.28,0,0.5,0.22,0.5,0.5v2.29l1.5,1.5 C20.2,19.49,20.2,19.8,20,20z"/>
</symbol>
<symbol id="list" viewBox="0 0 24 24">
    <path d="M13 10H3c-.55 0-1 .45-1 1s.45 1 1 1h10c.55 0 1-.45 1-1s-.45-1-1-1zm0-4H3c-.55 0-1 .45-1 1s.45 1 1 1h10c.55 0 1-.45 1-1s-.45-1-1-1zm5 8v-3c0-.55-.45-1-1-1s-1 .45-1 1v3h-3c-.55 0-1 .45-1 1s.45 1 1 1h3v3c0 .55.45 1 1 1s1-.45 1-1v-3h3c.55 0 1-.45 1-1s-.45-1-1-1h-3zM3 16h6c.55 0 1-.45 1-1s-.45-1-1-1H3c-.55 0-1 .45-1 1s.45 1 1 1z"/>
</symbol>
<symbol id="arrow" viewBox="0 0 24 24">
    <path d="M21.65 11.65l-2.79-2.79c-.32-.32-.86-.1-.86.35V11H4c-.55 0-1 .45-1 1s.45 1 1 1h14v1.79c0 .45.54.67.85.35l2.79-2.79c.2-.19.2-.51.01-.7z"/>
</symbol>
<symbol id="flag" viewBox="0 0 24 24">
    <path d="M12,2C6.48,2,2,6.48,2,12c0,5.52,4.48,10,10,10s10-4.48,10-10C22,6.48,17.52,2,12,2z M17,15h-3.38 c-0.38,0-0.73-0.21-0.89-0.55L12,13H9.5v4.25C9.5,17.66,9.16,18,8.75,18h0C8.34,18,8,17.66,8,17.25V8c0-0.55,0.45-1,1-1h4.38 c0.38,0,0.73,0.21,0.89,0.55L15,9h2c0.55,0,1,0.45,1,1v4C18,14.55,17.55,15,17,15z"/>
</symbol>
<symbol id="search" viewBox="0 0 24 24">
    <path d="M15.5 14h-.79l-.28-.27c1.2-1.4 1.82-3.31 1.48-5.34-.47-2.78-2.79-5-5.59-5.34-4.23-.52-7.79 3.04-7.27 7.27.34 2.8 2.56 5.12 5.34 5.59 2.03.34 3.94-.28 5.34-1.48l.27.28v.79l4.25 4.25c.41.41 1.08.41 1.49 0 .41-.41.41-1.08 0-1.49L15.5 14zm-6 0C7.01 14 5 11.99 5 9.5S7.01 5 9.5 5 14 7.01 14 9.5 11.99 14 9.5 14z"/>
</symbol>

<!-- positions page -->

<symbol id="split" viewBox="0 0 24 24">
    <path transform="rotate(90)" transform-origin="center" d="M14.85 4.85l1.44 1.44-2.88 2.88 1.42 1.42 2.88-2.88 1.44 1.44c.31.31.85.09.85-.36V4.5c0-.28-.22-.5-.5-.5h-4.29c-.45 0-.67.54-.36.85zM8.79 4H4.5c-.28 0-.5.22-.5.5v4.29c0 .45.54.67.85.35L6.29 7.7 11 12.4V19c0 .55.45 1 1 1s1-.45 1-1v-7c0-.26-.11-.52-.29-.71l-5-5.01 1.44-1.44c.31-.3.09-.84-.36-.84z"/>
</symbol>

<symbol id="combine" viewBox="0 0 24 24">
    <path transform="rotate(90)" transform-origin="center" d="M17.7 19.7c.39-.39.39-1.02 0-1.41l-2.7-2.7L13.59 17l2.7 2.7c.39.39 1.03.39 1.41 0zM8.71 8H11v5.59l-4.71 4.7c-.39.39-.39 1.02 0 1.41.39.39 1.02.39 1.41 0l5.3-5.3V8h2.29c.45 0 .67-.54.35-.85l-3.29-3.29c-.2-.2-.51-.2-.71 0L8.35 7.15c-.31.31-.09.85.36.85z"/>
</symbol>

<symbol id="redeem" viewBox="0 0 24 24">
    <path d="M12.5 8c-2.65 0-5.05.99-6.9 2.6L3.71 8.71C3.08 8.08 2 8.52 2 9.41V15c0 .55.45 1 1 1h5.59c.89 0 1.34-1.08.71-1.71l-1.91-1.91c1.39-1.16 3.16-1.88 5.12-1.88 3.16 0 5.89 1.84 7.19 4.5.27.56.91.84 1.5.64.71-.23 1.07-1.04.75-1.72C20.23 10.42 16.65 8 12.5 8z"/>
</symbol>

<symbol id="trade" viewBox="0 0 24 24">
    <path d="M6.4 9.2h.2c.77 0 1.4.63 1.4 1.4v7c0 .77-.63 1.4-1.4 1.4h-.2c-.77 0-1.4-.63-1.4-1.4v-7c0-.77.63-1.4 1.4-1.4zM12 5c.77 0 1.4.63 1.4 1.4v11.2c0 .77-.63 1.4-1.4 1.4-.77 0-1.4-.63-1.4-1.4V6.4c0-.77.63-1.4 1.4-1.4zm5.6 8c.77 0 1.4.63 1.4 1.4v3.2c0 .77-.63 1.4-1.4 1.4-.77 0-1.4-.63-1.4-1.4v-3.2c0-.77.63-1.4 1.4-1.4z"/>
</symbol>

<!-- token symbols -->

<symbol id="compound" viewBox="0 0 16 16">
    <path fill-rule="evenodd" clip-rule="evenodd" d="M1.66652 12.4698C1.25295 12.2261 1 11.7921 1 11.326V8.72374C1 8.62412 1.02769 8.52812 1.07939 8.44273C1.24002 8.17588 1.59636 8.08522 1.87331 8.24172L7.96991 11.6658C8.32624 11.8668 8.54596 12.2332 8.54596 12.6316V15.3282C8.54596 15.451 8.51084 15.5737 8.44441 15.6786C8.24314 15.9953 7.81478 16.0949 7.48613 15.901L1.66652 12.4698ZM10.7541 7.52842C11.1105 7.72942 11.3302 8.09588 11.3302 8.49428V13.9657C11.3302 14.1276 11.2397 14.277 11.0939 14.3553L9.75895 15.0792C9.74235 15.0881 9.72389 15.0952 9.70544 15.1006V12.0625C9.70544 11.6693 9.49126 11.3047 9.14046 11.1019L3.78611 8.01582V4.5864C3.78611 4.48679 3.81381 4.39074 3.8655 4.30536C4.02613 4.03854 4.38247 3.94783 4.65942 4.10436L10.7541 7.52842ZM13.4221 3.48714C13.7803 3.68635 14 4.05633 14 4.45477V12.4467C14 12.6103 13.9058 12.7615 13.7563 12.8398L12.4915 13.4979V7.93399C12.4915 7.54092 12.2774 7.17802 11.9284 6.97523L6.4559 3.81265V0.559321C6.4559 0.459711 6.48359 0.363659 6.53344 0.278279C6.69407 0.0114676 7.05041 -0.0792482 7.32737 0.0755027L13.4221 3.48714Z"/>
</symbol>

<symbol id="dai" viewBox="0 0 16 16">
    <path fill-rule="evenodd" clip-rule="evenodd" d="M8.00006 0L0 8.00006L8.00004 16.0002L16 8.00015L8.00006 0ZM13.1716 8.00015L8.00006 2.82843L2.82843 8.00006L5.33346 8.00015L8.00006 5.3334L10.6667 8.00008L13.1716 8.00015Z"/>
</symbol>

<symbol id="usdc" viewBox="0 0 16 16">
    <path d="M6.04446 15.6049C6.04446 15.8831 5.86668 15.9759 5.60002 15.9759C2.31112 14.863 0 11.7097 0 8.00001C0 4.29029 2.31112 1.13704 5.60002 0.0241251C5.86668 -0.0686177 6.04446 0.116868 6.04446 0.395096V1.0443C6.04446 1.22978 5.95557 1.41527 5.77779 1.50801C3.20001 2.52818 1.42223 5.03224 1.42223 8.00001C1.42223 10.9678 3.2889 13.5646 5.77779 14.492C5.95557 14.5847 6.04446 14.7702 6.04446 14.9557V15.6049Z"/>
    <path d="M8.71115 13.2863C8.71115 13.4718 8.53337 13.6573 8.35559 13.6573H7.64448C7.4667 13.6573 7.28892 13.4718 7.28892 13.2863V12.1734C5.8667 11.9879 5.15558 11.1532 4.88892 9.94759C4.88892 9.76211 4.97781 9.57662 5.15558 9.57662H5.95559C6.13336 9.57662 6.22225 9.66936 6.31114 9.85485C6.48892 10.504 6.84448 11.0605 8.00004 11.0605C8.88893 11.0605 9.51115 10.5968 9.51115 9.85485C9.51115 9.11291 9.15559 8.83468 7.91115 8.64919C6.04447 8.37096 5.15558 7.81451 5.15558 6.23788C5.15558 5.03222 6.04447 4.1048 7.28892 3.91931V2.8064C7.28892 2.62091 7.4667 2.43542 7.64448 2.43542H8.35559C8.53337 2.43542 8.71115 2.62091 8.71115 2.8064V3.91931C9.77782 4.1048 10.4889 4.75399 10.6667 5.77417C10.6667 5.95965 10.5778 6.14514 10.4 6.14514H9.68893C9.51115 6.14514 9.42226 6.05239 9.33337 5.86691C9.15559 5.21771 8.71115 4.93948 7.91115 4.93948C7.02226 4.93948 6.57781 5.40319 6.57781 6.05239C6.57781 6.70159 6.84448 7.07257 8.17781 7.25805C10.0445 7.53628 10.9334 8.09274 10.9334 9.66936C10.9334 10.875 10.0445 11.8952 8.71115 12.1734V13.2863V13.2863Z"/>
    <path d="M10.4 15.9759C10.1333 16.0686 9.95557 15.8831 9.95557 15.6049V14.9557C9.95557 14.7702 10.0445 14.5847 10.2222 14.492C12.8 13.4718 14.5778 10.9678 14.5778 7.99999C14.5778 5.03222 12.7111 2.43542 10.2222 1.50799C10.0445 1.41525 9.95557 1.22977 9.95557 1.04428V0.39508C9.95557 0.116852 10.1333 0.0241089 10.4 0.0241089C13.6 1.13702 16 4.29028 16 7.99999C16 11.7097 13.6889 14.863 10.4 15.9759Z"/>
</symbol>

</svg>
